<svg xmlns="http://www.w3.org/2000/svg" viewBox="0 0 63.529 60" class="icon">
    <path d="M61.765 14.118H51.529V1.765C51.53.776 50.753 0 49.765 0h-48C.776 0 0 .776 0 1.765v14.117c0 .989.776 1.765 1.765 1.765H12v10.588H1.765C.776 28.235 0 29.012 0 30v14.118c0 .988.776 1.764 1.765 1.764H12v12.353c0 .989.776 1.765 1.765 1.765h48c.988 0 1.764-.776 1.764-1.765V44.118c0-.989-.776-1.765-1.764-1.765H51.529V31.765h10.236c.988 0 1.764-.777 1.764-1.765V15.882c0-.988-.776-1.764-1.764-1.764zM27.529 3.529H48v10.589H27.53V3.529zM36 17.647v10.588H15.53V17.647H36zm-32.47-3.53V3.53H24v10.589H3.53zm0 28.236V31.765H24v10.588H3.53zM36 56.47H15.53V45.882H36v10.589zm-8.47-14.118V31.765H48v10.588H27.53zM60 45.883V56.47H39.53V45.882H60zm0-17.648H39.53V17.647H60v10.588z"/>
</svg>