<svg data-v-423bf9ae="" xmlns="http://www.w3.org/2000/svg" viewBox="0 0 63.529411764705884 60" class="icon"><!----><!----><!----><!----><g data-v-423bf9ae="" id="cd3ff226-3077-4fe4-8893-67c21293cd79" transform="matrix(0.7058823529411765,0,0,0.7058823529411765,-3.5294119890998417,-5.294117647058826)" stroke="none" fill="white"><path d="M92.5 27.5H78V10c0-1.4-1.1-2.5-2.5-2.5h-68C6.1 7.5 5 8.6 5 10v20c0 1.4 1.1 2.5 2.5 2.5H22v15H7.5C6.1 47.5 5 48.6 5 50v20c0 1.4 1.1 2.5 2.5 2.5H22V90c0 1.4 1.1 2.5 2.5 2.5h68c1.4 0 2.5-1.1 2.5-2.5V70c0-1.4-1.1-2.5-2.5-2.5H78v-15h14.5c1.4 0 2.5-1.1 2.5-2.5V30c0-1.4-1.1-2.5-2.5-2.5zM44 12.5h29v15H44v-15zm12 20v15H27v-15h29zm-46-5v-15h29v15H10zm0 40v-15h29v15H10zm46 20H27v-15h29v15zm-12-20v-15h29v15H44zm46 5v15H61v-15h29zm0-25H61v-15h29v15z"></path></g><!----></svg>